<svg width="184" height="40" version="1.1" xmlns="http://www.w3.org/2000/svg">
 <defs>
  <linearGradient id="a" x1="80" x2="160" y1="-24" y2="64" gradientUnits="userSpaceOnUse">
   <stop stop-color="#8c0f64" offset="0"/>
   <stop stop-color="#e75f0e" offset="1"/>
  </linearGradient>
 </defs>
 <path d="m13.41 11.07c-1.92 0-3.772 0.2314-5.559 0.695-1.787 0.4304-3.393 1.009-4.816 1.737l2.432 5.015c1.258-0.5625 2.516-1.028 3.773-1.392 1.258-0.3972 2.549-0.5938 3.872-0.5938 1.324 0 2.35 0.3299 3.078 0.9917 0.7611 0.6618 1.141 1.704 1.141 3.127v1.192l-4.718 0.1493c-4.038 0.1654-7.064 0.9256-9.084 2.283-2.019 1.357-3.028 3.475-3.028 6.356 0 2.945 0.7931 5.113 2.382 6.505 1.589 1.39 3.592 2.085 6.008 2.085 2.25 0 4.022-0.3319 5.312-0.9937 1.291-0.6618 2.514-1.721 3.672-3.178h0.198l1.44 3.674h5.164v-18.07c0-3.243-0.9765-5.641-2.929-7.196-1.92-1.589-4.699-2.384-8.342-2.384zm33.98 0.05043c-1.82 0-3.426 0.4957-4.816 1.489-1.39 0.9929-2.482 2.184-3.277 3.574h-0.3474l-1.093-4.566h-5.609v27.1h7.396v-13.8c0-1.721 0.3473-3.078 1.043-4.069 0.7282-0.9929 1.672-1.705 2.83-2.135 1.158-0.4632 2.366-0.695 3.624-0.695 0.331 0 0.711 0.03127 1.141 0.0989 0.4304 0.03127 0.7775 0.08326 1.042 0.1493l0.5473-6.95c-0.2979-0.06606-0.6954-0.1165-1.192-0.1493-0.4964-0.03127-0.9268-0.04847-1.291-0.04847zm-30.06 15.04v2.234c0 1.721-0.5461 3.062-1.638 4.022-1.092 0.9268-2.433 1.39-4.022 1.39-1.059 0-1.92-0.2314-2.581-0.695-0.6618-0.4964-0.9917-1.307-0.9917-2.432 0-1.291 0.4632-2.335 1.39-3.129 0.9268-0.7943 2.58-1.225 4.964-1.291z" fill="#444"/>
 <path d="m53.71 15.37q0-2.284 1.241-3.177 1.241-0.9432 3.028-0.9432 1.738 0 2.979 0.9432 1.241 0.8936 1.241 3.177 0 2.184-1.241 3.177-1.241 0.9432-2.979 0.9432-1.787 0-3.028-0.9432-1.241-0.9929-1.241-3.177zm0 20.01q0-2.284 1.241-3.177 1.241-0.9432 3.028-0.9432 1.738 0 2.979 0.9432 1.241 0.8936 1.241 3.177 0 2.184-1.241 3.177-1.241 0.9432-2.979 0.9432-1.787 0-3.028-0.9432-1.241-0.9929-1.241-3.177z" fill="#555"/>
 <path d="m66.85 0.9048v37.73h7.396v-8.439l3.178-2.531 7.795 10.97h8.537l-11.42-15.34 10.77-11.77h-8.342l-7.595 8.24c-0.5957 0.6618-1.159 1.341-1.689 2.036-0.5297 0.695-1.041 1.39-1.537 2.085h-0.101c0.09929-1.026 0.1823-2.035 0.2485-3.028 0.09929-1.026 0.1495-2.053 0.1495-3.079v-16.88zm60.71 0v37.73h7.396v-37.73zm18.85 0c-1.125 0-2.084 0.2642-2.879 0.7939-0.7611 0.4964-1.141 1.44-1.141 2.83 0 1.357 0.3801 2.3 1.141 2.83 0.7943 0.5297 1.753 0.7939 2.879 0.7939 1.092 0 2.036-0.2642 2.83-0.7939 0.7943-0.5297 1.192-1.473 1.192-2.83 0-1.39-0.3976-2.334-1.192-2.83-0.7943-0.5297-1.738-0.7939-2.83-0.7939zm-37.69 10.08c-1.92 0-3.772 0.2314-5.559 0.695-1.787 0.4304-3.393 1.009-4.816 1.737l2.432 5.015c1.258-0.5625 2.516-1.028 3.773-1.392 1.258-0.3972 2.549-0.5938 3.872-0.5938 1.324 0 2.35 0.3299 3.079 0.9917 0.7611 0.6618 1.141 1.704 1.141 3.127v1.192l-4.718 0.1493c-4.038 0.1654-7.064 0.9256-9.084 2.283-2.019 1.357-3.028 3.475-3.028 6.356 0 2.945 0.7931 5.113 2.382 6.505 1.589 1.392 3.592 2.085 6.008 2.085 2.25 0 4.022-0.3319 5.312-0.9937 1.291-0.6618 2.514-1.721 3.672-3.178h0.198l1.44 3.674h5.164v-18.07c0-3.243-0.9765-5.641-2.929-7.196-1.92-1.589-4.699-2.384-8.342-2.384zm33.97 0.5453v27.1h7.396v-27.1zm11.95 0 8.74 13.26-9.186 13.85h8.393l5.707-9.284 5.707 9.284h8.389l-9.233-13.85 8.838-13.26h-8.393l-5.312 8.639-5.261-8.639zm-41.98 14.55v2.234c0 1.721-0.5461 3.062-1.638 4.022-1.092 0.9268-2.433 1.39-4.022 1.39-1.059 0-1.92-0.2314-2.581-0.695-0.6618-0.4964-0.9917-1.307-0.9917-2.432 0-1.291 0.4632-2.335 1.39-3.129 0.9268-0.7943 2.58-1.225 4.964-1.291z" fill="url(#a)"/>
</svg>
